PathFileType	4	(X/Y/Z)	/Users/visionmauri/4_2_2_f_1_Sports2D/4_2_2_f_1_Sports2D_m_person00.trc
DataRate	CameraRate	NumFrames	NumMarkers	Units	OrigDataRate	OrigDataStartFrame	OrigNumFrames
30.0	30.0	6	22	m	30.0	121	325
Frame#	Time	Hip			RHip			RKnee			RAnkle			RBigToe			RSmallToe			RHeel			LHip			LKnee			LAnkle			LBigToe			LSmallToe			LHeel			Neck			Head			Nose			RShoulder			RElbow			RWrist			LShoulder			LElbow			LWrist			
		X1	Y1	Z1	X2	Y2	Z2	X3	Y3	Z3	X4	Y4	Z4	X5	Y5	Z5	X6	Y6	Z6	X7	Y7	Z7	X8	Y8	Z8	X9	Y9	Z9	X10	Y10	Z10	X11	Y11	Z11	X12	Y12	Z12	X13	Y13	Z13	X14	Y14	Z14	X15	Y15	Z15	X16	Y16	Z16	X17	Y17	Z17	X18	Y18	Z18	X19	Y19	Z19	X20	Y20	Z20	X21	Y21	Z21	X22	Y22	Z22
121	4.045781893004115	1.3042041596160951	0.9732604661508655	0.0301	1.3014915074251785	0.9639101549456633	0.0301	1.2648765153472867	0.6504316355084526	0.129	1.1410652601205309	0.2917676142619558	0.023	1.2845948973159154	0.20898013834356316	0.2179	1.2599954660376989	0.19448297142366622	0.1804	1.0886454041954703	0.24071709274833056	-0.0119	1.291789811091062	0.9687338118284671	0.0301	1.258112700821447	0.6526535873122296	0.129	1.091861407106007	0.3517320526274959	0.023	1.2498523676910462	0.24414174568246516	0.2179	1.2389283242072902	0.24708455598213952	0.1804	1.0390816975723258	0.3044398894815991	-0.0119	1.546650225907482	1.379188418379023	0.0008	1.744977900801429	1.4762639950467749	0.0655	1.670996678388287	1.3475163032134971	0.1076	1.525867879426321	1.3398167962440855	-0.01275	1.4408217056484083	1.1002592904815922	0.0702	1.54645608799266	0.9058119214831174	0.1076	1.480331768692665	1.362206440952944	-0.01275	1.494472310346392	1.0983871818828541	0.0702	1.5571299414965387	0.9090808955901124	0.1076
122	4.079218106995885	1.3088438101799489	0.9678583304044095	0.0301	1.3063885112955906	0.9618983410718198	0.0301	1.2642467666200246	0.6415783662445101	0.129	1.149557739225682	0.28400000510623835	0.023	1.2861047562897756	0.20600915458867647	0.2179	1.2639187746877	0.19302807116516346	0.1804	1.1085898679636148	0.2328916122608179	-0.0119	1.3011390373686023	0.9642962854454917	0.0301	1.2595876119956004	0.6461472550096867	0.129	1.1107516120677132	0.3440752228973427	0.023	1.2459130371915164	0.25619273725002945	0.2179	1.2334720663949847	0.24901775512968904	0.1804	1.0640333304987877	0.2952925191377048	-0.0119	1.546820652437124	1.3796457731243794	0.0008	1.7431224699137156	1.4732238188687714	0.0655	1.6691459195491447	1.3455685430431825	0.1076	1.5264921785639307	1.3410686350920058	-0.01275	1.4412339055755037	1.1030666462778518	0.0702	1.546876945877009	0.9044240705675031	0.1076	1.483060452606801	1.3606951857682432	-0.01275	1.496714036622224	1.0981897646954306	0.0702	1.5550920720843224	0.9076699016831516	0.1076
123	4.112654320987654	1.3133118003786124	0.9648829653990425	0.0301	1.3116424148519379	0.9628395243158964	0.0301	1.2677885489159308	0.6379686431697283	0.129	1.1560267274223537	0.27961546068584414	0.023	1.2839836574387649	0.20512495509277856	0.2179	1.262276968943939	0.19348013658355043	0.1804	1.11605546479997	0.23135782189288295	-0.0119	1.3111086965548517	0.9620339197467027	0.0301	1.2644260134394485	0.6424235860329666	0.129	1.1313219680804334	0.3317544738494178	0.023	1.2538634458797788	0.254184380481094	0.2179	1.2413597521023216	0.24449920578009116	0.1804	1.086774810778137	0.27975433187838505	-0.0119	1.5447849418846569	1.3763117149901527	0.0008	1.7433819280861809	1.4697736375792678	0.0655	1.6682338447896996	1.343035972204077	0.1076	1.5237875004966535	1.341407770146806	-0.01275	1.440949437521984	1.1055696009484333	0.0702	1.5473035591767856	0.9038188799443575	0.1076	1.4847980209521185	1.357836098868972	-0.01275	1.4953070764700653	1.0986839181566357	0.0702	1.5495356271478584	0.9090177140807639	0.1076
124	4.1460905349794235	1.3164031257642494	0.9641590394559699	0.0301	1.3149507547407777	0.9644299840319686	0.0301	1.274040298274551	0.6372786132356718	0.129	1.1572603880592536	0.27865576170046247	0.023	1.2815526592307667	0.20474495388497993	0.2179	1.2582272459898514	0.19316703417931144	0.1804	1.1179715311280247	0.23082299577832743	-0.0119	1.3203170946558944	0.9609080658012717	0.0301	1.2722587562830792	0.6405021731900529	0.129	1.149506676442548	0.31698790983237213	0.023	1.2692209381373794	0.23721659430466238	0.2179	1.2565132918158806	0.2367163858661766	0.1804	1.1036366824819992	0.2651570287012488	-0.0119	1.5426992635823105	1.3721696270637058	0.0008	1.742721661940481	1.4695736358869982	0.0655	1.668547769447639	1.3431532676295288	0.1076	1.5174026862400105	1.3431251062269525	-0.01275	1.4397235484842894	1.1085214990969523	0.0702	1.5474344073886435	0.9051482467129327	0.1076	1.4896229783597925	1.3530976530273082	-0.01275	1.4921103618873024	1.0996831067835728	0.0702	1.5465722911844622	0.9103633520551667	0.1076
125	4.179526748971194	1.3182196982790455	0.9635116514683556	0.0301	1.3153577113273167	0.9646066717162275	0.0301	1.2798631532107168	0.6369281978694418	0.129	1.158540213134354	0.279194380587545	0.023	1.2807807428797	0.20482438946961143	0.2179	1.2549522290180077	0.19224756444608196	0.1804	1.1196834179583692	0.22858763530816822	-0.0119	1.3280530315077934	0.958995821749761	0.0301	1.2789821880896701	0.6394386296584155	0.129	1.1602765253218787	0.30821881448868876	0.023	1.279572412992097	0.220526838869182	0.2179	1.2672878709348265	0.23086374871002843	0.1804	1.111631193465195	0.2582155791197293	-0.0119	1.540473031786936	1.3702596492509336	0.0008	1.7373260235513621	1.4728978399378942	0.0655	1.668506601202791	1.3464871278881998	0.1076	1.5094868504430627	1.3466488066328668	-0.01275	1.4373402329330207	1.1112795987012145	0.0702	1.5469052896178084	0.9066714556109824	0.1076	1.496176485543553	1.347871433042621	-0.01275	1.4888026533146128	1.1012707811501083	0.0702	1.5487001488329337	0.9105905214435344	0.1076
126	4.212962962962963	1.3197489032725382	0.9624462414742598	0.0301	1.3148000183662882	0.9639060000342553	0.0301	1.2834087629678923	0.637318480350981	0.129	1.1602155606630171	0.27930025290209026	0.023	1.2805198456681688	0.20587725121942782	0.2179	1.2540263120024324	0.19204332054182133	0.1804	1.12105472244072	0.22485471937131385	-0.0119	1.333660576854115	0.9566106733613415	0.0301	1.282466524917814	0.6393870036173218	0.129	1.163188144934455	0.3073049824164391	0.023	1.282212679294114	0.21549986254137526	0.2179	1.270645381297322	0.22952576123096136	0.1804	1.1116956370633753	0.256632882700085	-0.0119	1.5363698930445273	1.3697660826175144	0.0008	1.7294529881515524	1.4763858538772217	0.0655	1.66580159130797	1.3505881995425313	0.1076	1.5034895984384018	1.3490650549250982	-0.01275	1.4325558051364038	1.1138403879326129	0.0702	1.5456074391416208	0.9079172396119759	0.1076	1.4987609618327238	1.3442195708100098	-0.01275	1.4858238198845122	1.1028616016749269	0.0702	1.5507363550716955	0.9112117135883151	0.1076
